<?xml version="1.0" encoding="utf-8"?>
<!-- Generator: Adobe Illustrator 21.0.0, SVG Export Plug-In . SVG Version: 6.00 Build 0)  -->
<svg version="1.0" id="Layer_1" xmlns="http://www.w3.org/2000/svg" xmlns:xlink="http://www.w3.org/1999/xlink" x="0px" y="0px"
	 viewBox="0 0 300 300" enable-background="new 0 0 300 300" xml:space="preserve">
<path fill="#D80000" d="M207.5,150l84.7-84.7c10.4-10.4,10.4-27.3,0-37.7L273.4,8.8c-10.4-10.4-27.3-10.4-37.7,0L151,93.5L66.3,8.8
	C55.9-1.6,39-1.6,28.6,8.8L9.8,27.6C-0.6,38-0.6,54.9,9.8,65.3L94.5,150L9.8,234.7c-10.4,10.4-10.4,27.3,0,37.7l18.8,18.8
	c10.4,10.4,27.3,10.4,37.7,0l84.7-84.7l84.7,84.7c10.4,10.4,27.3,10.4,37.7,0l18.8-18.8c10.4-10.4,10.4-27.3,0-37.7L207.5,150z"/>
</svg>
