<svg id="Layer_1" data-name="Layer 1" xmlns="http://www.w3.org/2000/svg" viewBox="0 0 471.09 353.36"><defs><style>.cls-1{fill:#fff;}</style></defs><title>back-icon</title><path class="cls-1" d="M480.21,114.38V402.27c-.29.3-.75.55-.85.9C473,425.23,460.08,435,437.12,435q-143.84,0-287.67.07c-15.22,0-26.68-6-35.05-18.6q-46.55-70.07-93.25-140c-3.81-5.72-8-11.18-12-16.76q0-1.31,0-2.62A31.62,31.62,0,0,0,12,253.75q51.05-76.47,102-153c7.88-11.86,18.2-19,32.79-19,98.08,0,196.16-.15,294.24.29,7.35,0,15.18,3.31,21.9,6.81C472.94,94,477,104.12,480.21,114.38ZM256.49,258.25l-69.84,69.81,28.48,28.49,69.29-69.44L353,356l29.24-29.3-69.49-69.43,68.24-68.14L352.51,160.7l-69,69-69.07-69.15-27.83,27.89Z" transform="translate(-9.12 -81.67)"/></svg>