<svg id="Layer_1" data-name="Layer 1" xmlns="http://www.w3.org/2000/svg" viewBox="0 0 810.45 1054.07"><title>lock</title><path d="M512.59,14.41h57.64c12.43,2.08,24.93,3.83,37.29,6.3C749,48.94,854.76,171.31,866.45,312.91c3.12,37.85,1.55,76.09,2.11,114.15.06,4,0,8,0,13.12,5.87,0,10.6.19,15.3,0,24-1.11,40.36,10.8,51.85,30.68,8.48,14.67,10.93,30.82,10.93,47.53q-.05,235.71-.1,471.41a138.3,138.3,0,0,1-1.84,22.52c-5.62,33.78-29.31,56.09-59.54,56.1q-343.78.07-687.56.1c-19.49,0-34.28-8.1-45.59-23.42-11.92-16.15-15.83-34.64-15.83-54.29q0-236.74.09-473.47a131.71,131.71,0,0,1,1.81-21.49c5.91-35.44,29.5-55.48,65-55.65,3.35,0,6.69-.29,11.17-.49,0-5.28-.08-10,0-14.68,1-47.6-4.29-95.63,6.12-142.62,29.42-132.74,108.38-220.14,240-257.93C477.33,19.57,495.16,17.68,512.59,14.41ZM732.35,439.64a59.4,59.4,0,0,0,.62-6.37c-.57-38.39,1.85-77.12-2.4-115.1C720.28,226.36,643,155.69,551.43,150.6c-89.85-5-173,56.33-195.32,144.86-11.81,46.93-4.78,94.9-5.83,142.42,0,.52.73,1.05,1.26,1.76ZM476.12,829c0,22.28-.15,44.56,0,66.84.19,21.72,13,34.3,34.78,34.41,19.54.1,39.08,0,58.61,0,25.07,0,37.11-12.07,37.14-37.26.05-43.19-.2-86.38.28-129.56.06-5.52,2.52-11.87,5.86-16.36,11.16-15,17.83-31.47,19.11-50.12,3.25-47.5-33.8-96.12-92.47-93.82-36.88,1.44-64.18,16.81-79.81,49.79-15.91,33.6-11.33,65.86,11.58,95.48a23,23,0,0,1,4.66,12.71C476.35,783.71,476.11,806.34,476.12,829Z" transform="translate(-136.18 -14.41)"/></svg>