<svg id="Layer_1" data-name="Layer 1" xmlns="http://www.w3.org/2000/svg" viewBox="0 0 787.68 1033.31"><defs><style>.cls-1{fill:#fed404;}.cls-2{fill:#fbbf14;}.cls-3{fill:#405a5b;}.cls-4{fill:#4c6a70;}</style></defs><title>lock</title><path class="cls-1" d="M149.39,1055.81q0-267.86-.2-535.71c0-9,1.87-12.06,11.36-11.62,16.43.78,32.93,0,49.4-.09H331.08c5.69.11,11.37.31,17.06.32q97.46.2,194.91.35,0,60.23.05,120.46c-1.66.25-3.31.59-5,.73-24.38,2-45.78,11-61.91,29.57-41,47.29-27.7,114.1,28.19,142.4,6.74,3.41,8.64,7.08,8.55,14.37-.44,35.93,0,71.87-.34,107.81-.06,6.55,1.68,8.86,8.36,8.4,7.34-.5,14.75.09,22.13.21q0,61.4-.07,122.79Z" transform="translate(-149.19 -22.5)"/><path class="cls-2" d="M543,1055.81q0-61.4.07-122.79l-.15-.7c7,.12,14.14-.25,21.12.48,7.63.81,9.51-1.87,9.43-9.39-.41-36.27-.08-72.55-.29-108.83,0-5.63,1.34-8.57,6.94-11.13,25.82-11.81,42.57-31.61,50.55-59.06,16.42-56.49-29.64-116.56-87.77-114.14l.17-.73q0-60.23-.05-120.46c5.69-.11,11.37-.31,17.06-.32q97.45-.2,194.9-.35H876.14c17.14.11,34.3.68,51.43.13,7.77-.25,9.33,2.18,9.3,9.55-.27,80-.17,160.08-.17,240.12q0,148.81,0,297.62Z" transform="translate(-149.19 -22.5)"/><path class="cls-3" d="M876.14,508.39H755q0-71.16,0-142.32a260.38,260.38,0,0,0-3.66-45.14c-12.51-71-51.72-122.23-115.24-155.42-29.13-15.22-60.76-20.18-93-22.5V22.54c58.64-1,113.25,14.12,163.92,42.93,63.77,36.26,110.71,88.3,140.73,155.28,17.56,39.18,27.61,80.37,28.15,123.35C876.59,398.86,876.11,453.63,876.14,508.39Z" transform="translate(-149.19 -22.5)"/><path class="cls-4" d="M543.09,22.54V143c-44.37,1.38-85.64,12.92-121.79,39.24-59.84,43.58-89.63,102.93-90.15,176.82-.35,49.76-.07,99.53-.07,149.3H209.95q0-74.13,0-148.26c.09-92.74,31.91-173,96.93-239,51.45-52.25,114.15-84,187-94.9A295.78,295.78,0,0,1,543.09,22.54Z" transform="translate(-149.19 -22.5)"/><path class="cls-4" d="M543.11,933c-7.38-.12-14.8-.71-22.13-.21-6.68.45-8.42-1.85-8.36-8.4.3-35.93-.09-71.88.34-107.81.09-7.29-1.81-11-8.55-14.37-55.89-28.29-69.14-95.11-28.19-142.4,16.13-18.62,37.53-27.54,61.91-29.57,1.67-.14,3.32-.48,5-.73l-.17.73q0,151,0,302.06Z" transform="translate(-149.19 -22.5)"/><path class="cls-3" d="M543,932.31q0-151,0-302.06c58.13-2.42,104.19,57.65,87.77,114.14-8,27.45-24.74,47.25-50.55,59.06-5.6,2.56-7,5.5-6.94,11.13.21,36.28-.12,72.55.29,108.83.09,7.52-1.8,10.2-9.43,9.39C557.1,932.06,550,932.43,543,932.31Z" transform="translate(-149.19 -22.5)"/></svg>